<svg width="197" height="33" viewBox="0 0 197 33" fill="none" xmlns="http://www.w3.org/2000/svg">
<path d="M6.621 10.277V0.62H0.294V28H6.621V25.114C7.768 26.927 9.951 28.296 12.985 28.296C18.054 28.296 22.087 24.152 22.087 17.64C22.087 11.128 18.091 7.058 12.985 7.058C10.025 7.058 7.768 8.427 6.621 10.277ZM15.649 17.64C15.649 20.933 13.503 22.783 11.098 22.783C8.73 22.783 6.584 20.97 6.584 17.677C6.584 14.384 8.73 12.571 11.098 12.571C13.503 12.571 15.649 14.347 15.649 17.64ZM25.4063 28H31.7333V0.62H25.4063V28ZM56.7054 7.354H50.3784V18.565C50.3784 21.377 48.8244 22.931 46.3824 22.931C44.0144 22.931 42.4234 21.377 42.4234 18.565V7.354H36.1334V19.416C36.1334 24.929 39.3524 28.222 44.1254 28.222C46.9004 28.222 49.1204 26.964 50.3784 25.188V28H56.7054V7.354ZM70.3521 12.127C72.4611 12.127 74.2371 13.422 74.2371 15.679H66.3191C66.6891 13.385 68.2801 12.127 70.3521 12.127ZM80.2311 21.155H73.4971C72.9791 22.265 71.9801 23.153 70.2041 23.153C68.1691 23.153 66.5041 21.895 66.2821 19.194H80.6011C80.6751 18.565 80.7121 17.936 80.7121 17.344C80.7121 11.054 76.4571 7.058 70.4261 7.058C64.2841 7.058 59.9921 11.128 59.9921 17.677C59.9921 24.226 64.3581 28.296 70.4261 28.296C75.5691 28.296 79.2321 25.188 80.2311 21.155Z" fill="#3D5AFF"/>
<path d="M89.4519 14.939C89.4519 10.314 92.1159 7.391 96.3339 7.391C100.478 7.391 103.179 10.314 103.179 14.939C103.179 19.49 100.478 22.487 96.3339 22.487C92.1159 22.487 89.4519 19.49 89.4519 14.939ZM109.617 14.939C109.617 7.132 103.734 1.656 96.3339 1.656C88.9709 1.656 82.9769 7.132 82.9769 14.939C82.9769 22.746 88.9709 28.259 96.3339 28.259C97.3329 28.259 98.2949 28.148 99.2199 27.963L102.55 32.44H110.209L104.511 25.595C107.619 23.227 109.617 19.49 109.617 14.939ZM133.596 7.354H127.269V18.565C127.269 21.377 125.715 22.931 123.273 22.931C120.905 22.931 119.314 21.377 119.314 18.565V7.354H113.024V19.416C113.024 24.929 116.243 28.222 121.016 28.222C123.791 28.222 126.011 26.964 127.269 25.188V28H133.596V7.354ZM158.343 17.677C158.343 11.128 153.681 7.058 147.613 7.058C141.582 7.058 136.883 11.128 136.883 17.677C136.883 24.226 141.471 28.296 147.539 28.296C153.607 28.296 158.343 24.226 158.343 17.677ZM143.321 17.677C143.321 14.162 145.319 12.534 147.613 12.534C149.833 12.534 151.905 14.162 151.905 17.677C151.905 21.155 149.796 22.82 147.539 22.82C145.245 22.82 143.321 21.155 143.321 17.677ZM162.698 20.822C162.698 26.187 165.695 28 169.987 28H173.206V22.635H170.949C169.543 22.635 169.025 22.117 169.025 20.896V12.608H173.169V7.354H169.025V2.322H162.698V7.354H160.182V12.608H162.698V20.822ZM185.833 12.127C187.942 12.127 189.718 13.422 189.718 15.679H181.8C182.17 13.385 183.761 12.127 185.833 12.127ZM195.712 21.155H188.978C188.46 22.265 187.461 23.153 185.685 23.153C183.65 23.153 181.985 21.895 181.763 19.194H196.082C196.156 18.565 196.193 17.936 196.193 17.344C196.193 11.054 191.938 7.058 185.907 7.058C179.765 7.058 175.473 11.128 175.473 17.677C175.473 24.226 179.839 28.296 185.907 28.296C191.05 28.296 194.713 25.188 195.712 21.155Z" fill="#31343D"/>
</svg>
